inDegrees=yes
name=ik_S47_A02_T02
DataType=double
version=3
OpenSimVersion=4.3-2021-08-27-4bc7ad9
endheader
time	pelvis_tilt	pelvis_list	pelvis_rotation	pelvis_tx	pelvis_ty	pelvis_tz	hip_flexion_r	hip_adduction_r	hip_rotation_r	knee_angle_r	knee_angle_r_beta	ankle_angle_r	subtalar_angle_r	mtp_angle_r	hip_flexion_l	hip_adduction_l	hip_rotation_l	knee_angle_l	knee_angle_l_beta	ankle_angle_l	subtalar_angle_l	mtp_angle_l	lumbar_extension	lumbar_bending	lumbar_rotation	arm_flex_r	arm_add_r	arm_rot_r	elbow_flex_r	pro_sup_r	wrist_flex_r	wrist_dev_r	arm_flex_l	arm_add_l	arm_rot_l	elbow_flex_l	pro_sup_l	wrist_flex_l	wrist_dev_l
38.84000000000047	0.9467501198413919	5.066489104858161	90.42496695600185	0	0.9399999999999999	0	-1.803078271542997	-1.089597629087331	-8.2555986414943	9.490832107578091	0.1656462690312304	0	0	0	13.22225415904333	-8.371777650460874	-7.662230933809595	31.13845806912533	0.5434686173004331	0	0	0	0	0	0	41.79380134272434	-41.79380134272434	4.951430911255393	84.35163953045964	85.04856936118848	0	0	41.79380134272434	-41.79380134272434	4.951430911255393	84.35163953045964	85.04856936117913	0	0
38.86000000000048	0.6247133701831913	4.944813214608292	89.90469921872689	0	0.9399999999999999	0	-1.502411445067144	-1.339098197125935	-7.616443089253812	9.627787109575015	0.1680365847431521	0	0	0	13.24591612385051	-8.306872480137423	-8.342432152085658	34.83611309882566	0.6080048721716326	0	0	0	0	0	0	41.79529994517399	-41.79529994517399	4.951476172394381	84.35224376084165	85.04852410005135	0	0	41.79529994517399	-41.79529994517399	4.951476172394381	84.35224376084165	85.048524100042	0	0
38.88000000000048	0.3902880195670146	4.967620185057945	89.75209034638696	0	0.9399999999999999	0	-1.157653556633728	-2.000595428727233	-8.43043295725138	9.141415549426286	0.1595477996304951	0	0	0	11.5027928359261	-8.24910054235645	-9.723947824844606	36.53131149834594	0.6375916657177996	0	0	0	0	0	0	41.79655431321366	-41.79655431321366	4.951514238049437	84.35275193273323	85.04848603439785	0	0	41.79655431321366	-41.79655431321366	4.951514238049437	84.35275193273323	85.04848603438852	0	0
38.90000000000048	0.201952044497025	5.047292762718422	89.76378840158063	0	0.9399999999999999	0	-0.9053002236337909	-2.139753743630749	-8.938854140473113	7.220234525404216	0.1260168652344737	0	0	0	11.37773182554559	-8.258358795273207	-9.705659205452941	39.80059452483058	0.6946514187095216	0	0	0	0	0	0	41.79789892833791	-41.79789892833791	4.951554962924475	84.35329560471293	85.0484453095245	0	0	41.79789892833791	-41.79789892833791	4.951554962924475	84.35329560471293	85.04844530951519	0	0
38.92000000000048	0.1040474293685834	5.129378996114547	89.8548362028467	0	0.9399999999999999	0	-0.7368356622970176	-2.211829441531014	-9.618438969370578	6.750959409388079	0.1178264693623138	0	0	0	6.168323338980169	-7.621482875684531	-11.49796290791308	37.84440955099328	0.6605095501380217	0	0	0	0	0	0	41.80882780943968	-41.80882780943968	4.951839760722343	84.35709753756646	85.04816051173803	0	0	41.80882780943968	-41.80882780943968	4.951839760722343	84.35709753756646	85.04816051172877	0	0
38.94000000000049	0.03790763908928306	5.159837851374633	90.07149561788405	0	0.9399999999999999	0	-0.3335761041166572	-2.410198325074846	-10.45039343934739	6.617375684486386	0.1154949935357009	0	0	0	4.467624208607234	-7.422473514795282	-11.66363402623723	40.48835355181063	0.7066550781906359	0	0	0	0	0	0	41.81037687323374	-41.81037687323374	4.951886688414599	84.35772401615681	85.0481135840478	0	0	41.81037687323374	-41.81037687323374	4.951886688414599	84.35772401615681	85.04811358403853	0	0
38.96000000000049	-0.04232500541900563	5.105248856359819	90.389371623085	0	0.9399999999999999	0	0.6101316087952059	-2.528451586011515	-10.56558670160122	6.7081568924308	0.1170794245132685	0	0	0	3.264181119768516	-7.064648205486035	-11.14195222637941	39.18408222099524	0.6838912491285394	0	0	0	0	0	0	41.81169416125336	-41.81169416125336	4.951926363160645	84.35825366839734	85.04807390930347	0	0	41.81169416125336	-41.81169416125336	4.951926363160645	84.35825366839734	85.0480739092942	0	0
38.98000000000049	-0.0797583055480991	5.061652007316787	90.55362346934132	0	0.9399999999999999	0	0.6805380682015173	-2.564886921430421	-10.7146408768385	6.485522210796292	0.113193716289617	0	0	0	2.254437884220102	-6.687358825746149	-10.34993908635149	39.40365853632137	0.6877235787903775	0	0	0	0	0	0	41.81198990901179	-41.81198990901179	4.95193530026545	84.35837297753858	85.04806497219903	0	0	41.81198990901179	-41.81198990901179	4.95193530026545	84.35837297753858	85.04806497218978	0	0
39.0000000000005	-0.2219799228779908	4.927860885488525	90.94803041080095	0	0.9399999999999999	0	1.880655889081807	-2.780415074723669	-10.39896612584171	6.484332774391812	0.1131729567081158	0	0	0	1.46997151883105	-6.031346895229982	-9.52749488678116	38.40362489715325	0.6702696991561929	0	0	0	0	0	0	41.81296800061266	-41.81296800061266	4.951964856775701	84.3587675529288	85.04803541568994	0	0	41.81296800061266	-41.81296800061266	4.951964856775701	84.3587675529288	85.04803541568069	0	0
39.0200000000005	-0.4050434804641493	4.778188450703364	91.36779098841239	0	0.9399999999999999	0	2.018317421881549	-2.979505824560117	-10.75786264617667	5.658066385475322	0.09875188772295904	0	0	0	0.7741396657320638	-5.262651967770566	-8.534958797969098	39.34992083202518	0.686785678917946	0	0	0	0	0	0	41.81412993426189	-41.81412993426189	4.952000049279038	84.35923736818624	85.04800022318808	0	0	41.81412993426189	-41.81412993426189	4.952000049279038	84.35923736818624	85.04800022317883	0	0
39.0400000000005	-0.5767213482857404	4.571509939146853	91.81082049469421	0	0.9399999999999999	0	3.722673203140686	-3.298261735459925	-10.88618381310143	6.097588665198124	0.1064229986399934	0	0	0	0.3965004726814928	-4.365778519922118	-7.151055777870776	38.60597918073341	0.6738014476601811	0	0	0	0	0	0	41.82923294528365	-41.82923294528365	4.952389498482625	84.36443634506324	85.04761077400002	0	0	41.82923294528365	-41.82923294528365	4.952389498482625	84.36443634506324	85.04761077399087	0	0
39.06000000000051	-0.7809915969228384	4.199241893849902	92.42786931846859	0	0.9399999999999999	0	5.807218075366716	-3.65063179734261	-10.56420019803339	6.369532814693223	0.1111693194302186	0	0	0	0.1592460751127579	-3.681599289407545	-5.957930292908685	36.74066097139735	0.641245503309862	0	0	0	0	0	0	41.84348220842739	-41.84348220842739	4.952756093917846	84.36933023258344	85.04724417857943	0	0	41.84348220842739	-41.84348220842739	4.952756093917846	84.36933023258344	85.04724417857031	0	0
39.08000000000051	-0.7564887111400161	3.984710597676954	92.66315786922087	0	0.9399999999999999	0	6.045304774102682	-3.659473219516358	-10.75878998676695	5.411314778392329	0.09444525974477345	0	0	0	0.3077536417566332	-3.682321389786503	-5.878808857350331	34.41983726526456	0.6007394882795074	0	0	0	0	0	0	41.84429603808344	-41.84429603808344	4.952780394323929	84.36965463890104	85.04721987817436	0	0	41.84429603808344	-41.84429603808344	4.952780394323929	84.36965463890104	85.04721987816522	0	0
39.10000000000051	-0.6659107937512598	3.769813874696398	92.73068519080924	0	0.9399999999999999	0	7.752481322323304	-4.072736456395263	-10.83228152979837	6.189908295618642	0.1080342801550558	0	0	0	-0.4955623308418637	-3.157756835651677	-6.34656775379	30.80686270830443	0.5376811864697698	0	0	0	0	0	0	41.8546013522142	-41.8546013522142	4.95304677297227	84.3732106783561	85.04695349953663	0	0	41.8546013522142	-41.8546013522142	4.95304677297227	84.3732106783561	85.04695349952755	0	0
39.12000000000052	-0.4693434147604119	3.681369400685332	92.6463244910712	0	0.9399999999999999	0	8.457597244568124	-3.903354615888347	-10.89831890727744	4.18976713046056	0.07312523131837158	0	0	0	-2.713426011303724	-2.786660680417417	-9.345867769447603	29.41353362523272	0.5133630064063749	0	0	0	0	0	0	41.85305897262539	-41.85305897262539	4.953013211848527	84.37276266355633	85.04698706065906	0	0	41.85305897262539	-41.85305897262539	4.953013211848527	84.37276266355633	85.04698706065004	0	0
39.14000000000052	-0.3981486751494307	3.61824884145047	92.52186182918182	0	0.9399999999999999	0	9.077043554444877	-3.626929020231766	-10.94293732262725	3.236928854209145	0.05649506615875708	0	0	0	-3.198262295806545	-3.531003456356396	-11.4613241872218	25.47584220845511	0.4446373262560853	0	0	0	0	0	0	41.85007489180829	-41.85007489180829	4.952944578719581	84.37184645660504	85.04705569378534	0	0	41.85007489180829	-41.85007489180829	4.952944578719581	84.37184645660504	85.04705569377634	0	0
39.16000000000052	-0.4442632971717594	3.61142149328685	92.4786544456198	0	0.9399999999999999	0	9.974651497330466	-3.756521287326647	-10.81765112315703	2.771005926083265	0.04836317700242759	0	0	0	-2.667171011942749	-2.207194311716409	-11.09602873686751	23.04700065587236	0.4022460441542653	0	0	0	0	0	0	41.85133246326834	-41.85133246326834	4.952982363382561	84.3723508757263	85.04701790912389	0	0	41.85133246326834	-41.85133246326834	4.952982363382561	84.3723508757263	85.0470179091149	0	0
39.18000000000053	-0.7125545050643972	3.483122588684223	92.5038095460534	0	0.9399999999999999	0	10.98263427373194	-4.18209352665956	-10.93942543974284	2.440028336061093	0.04258652830622475	0	0	0	-1.718088663354949	-1.104494904611567	-9.818186120227871	23.26220686645394	0.4060021010996541	0	0	0	0	0	0	41.85162759441674	-41.85162759441674	4.952991227207777	84.37246920634759	85.04700904529902	0	0	41.85162759441674	-41.85162759441674	4.952991227207777	84.37246920634759	85.04700904529005	0	0
39.20000000000053	-1.13893233565157	3.34680994258143	92.40687570711169	0	0.9399999999999999	0	11.74137860927385	-4.751010775876827	-11.41078176878363	2.480393004550773	0.04329102467284568	0	0	0	-0.8267329154972277	-0.6250964630600747	-10.24957540633405	23.43986162981491	0.4091027616521545	0	0	0	0	0	0	41.85191214699308	-41.85191214699308	4.952999741748375	84.3725828740229	85.04700053075875	0	0	41.85191214699308	-41.85191214699308	4.952999741748375	84.3725828740229	85.0470005307498	0	0
39.22000000000053	-1.593279208629378	3.305147897970673	92.20228187541733	0	0.9399999999999999	0	11.797228350267	-5.136540590249417	-11.17401218451241	1.530509428756377	0.02671242876461635	0	0	0	0.02654640570606783	-0.93683810270624	-11.85910965357321	24.75694148418016	0.4320901416225155	0	0	0	0	0	0	41.85310478715346	-41.85310478715346	4.953035568415812	84.37306115416784	85.04696470409277	0	0	41.85310478715346	-41.85310478715346	4.953035568415812	84.37306115416784	85.04696470408381	0	0
39.24000000000053	-2.024198368798457	3.347746301122122	91.93790268496683	0	0.9399999999999999	0	12.33726928270246	-5.599882564080511	-11.68061493992092	1.418262493149343	0.02475335016299956	0	0	0	1.965561183570459	-0.3568651285189185	-10.94843676382127	27.37899988487039	0.4778536938941366	0	0	0	0	0	0	41.86517029831617	-41.86517029831617	4.953346564371254	84.37721281446547	85.04665370814973	0	0	41.86517029831617	-41.86517029831617	4.953346564371254	84.37721281446547	85.04665370814082	0	0
39.26000000000054	-2.173389975832611	3.38273621761364	91.80070650932682	0	0.9399999999999999	0	12.73184117782105	-5.756120026933254	-12.44605105517425	1.676189955747581	0.02925503361665334	0	0	0	4.214221289266611	0.2771925458458047	-9.632107893885673	29.3178582651249	0.5116931563594621	0	0	0	0	0	0	41.87665863111609	-41.87665863111609	4.953643026180105	84.38117045067591	85.04635724635267	0	0	41.87665863111609	-41.87665863111609	4.953643026180105	84.38117045067591	85.04635724634385	0	0
